<mxfile host="65bd71144e">
    <diagram id="3QN9tkfxjbScaJ8n4eIY" name="a_route">
        <mxGraphModel dx="766" dy="541" grid="1" gridSize="10" guides="1" tooltips="1" connect="1" arrows="1" fold="1" page="1" pageScale="1" pageWidth="827" pageHeight="1169" background="#ffffff" math="0" shadow="0">
            <root>
                <mxCell id="0"/>
                <mxCell id="1" parent="0"/>
                <mxCell id="SOXYIgs0sn6xJ-toiQTK-9" value="" style="rounded=0;whiteSpace=wrap;html=1;fontSize=22;fontColor=#000000;labelBackgroundColor=none;fillColor=#FFFFFF;strokeColor=none;" vertex="1" parent="1">
                    <mxGeometry x="260" y="100" width="220" height="320" as="geometry"/>
                </mxCell>
                <mxCell id="SOXYIgs0sn6xJ-toiQTK-1" value="&lt;font style=&quot;font-size: 14px;&quot;&gt;struct nlmsghdr&lt;/font&gt;" style="rounded=0;whiteSpace=wrap;html=1;strokeColor=#000000;fillColor=#FFFFFF;fontColor=#000000;" vertex="1" parent="1">
                    <mxGeometry x="280" y="120" width="180" height="40" as="geometry"/>
                </mxCell>
                <mxCell id="SOXYIgs0sn6xJ-toiQTK-2" value="&lt;font style=&quot;font-size: 14px;&quot;&gt;struct rtmsg&lt;/font&gt;" style="rounded=0;whiteSpace=wrap;html=1;strokeColor=#000000;fillColor=#FFFFFF;fontColor=#000000;" vertex="1" parent="1">
                    <mxGeometry x="280" y="160" width="180" height="40" as="geometry"/>
                </mxCell>
                <mxCell id="SOXYIgs0sn6xJ-toiQTK-3" value="&lt;font style=&quot;font-size: 14px;&quot;&gt;struct rtattr&lt;/font&gt;" style="rounded=0;whiteSpace=wrap;html=1;strokeColor=#000000;fillColor=#FFFFFF;fontColor=#000000;" vertex="1" parent="1">
                    <mxGeometry x="280" y="200" width="180" height="40" as="geometry"/>
                </mxCell>
                <mxCell id="SOXYIgs0sn6xJ-toiQTK-4" value="&lt;font style=&quot;font-size: 14px;&quot;&gt;data&lt;/font&gt;" style="rounded=0;whiteSpace=wrap;html=1;strokeColor=#000000;fillColor=#FFFFFF;fontColor=#000000;" vertex="1" parent="1">
                    <mxGeometry x="280" y="240" width="180" height="40" as="geometry"/>
                </mxCell>
                <mxCell id="SOXYIgs0sn6xJ-toiQTK-5" value="&lt;font style=&quot;font-size: 14px;&quot;&gt;struct rtattr&lt;/font&gt;" style="rounded=0;whiteSpace=wrap;html=1;strokeColor=#000000;fillColor=#FFFFFF;fontColor=#000000;" vertex="1" parent="1">
                    <mxGeometry x="280" y="320" width="180" height="40" as="geometry"/>
                </mxCell>
                <mxCell id="SOXYIgs0sn6xJ-toiQTK-6" value="&lt;font style=&quot;font-size: 14px;&quot;&gt;data&lt;/font&gt;" style="rounded=0;whiteSpace=wrap;html=1;strokeColor=#000000;fillColor=#FFFFFF;fontColor=#000000;" vertex="1" parent="1">
                    <mxGeometry x="280" y="360" width="180" height="40" as="geometry"/>
                </mxCell>
                <mxCell id="SOXYIgs0sn6xJ-toiQTK-7" value="&lt;font size=&quot;1&quot; color=&quot;#000000&quot;&gt;&lt;b style=&quot;font-size: 28px;&quot;&gt;......&lt;/b&gt;&lt;/font&gt;" style="text;html=1;strokeColor=none;fillColor=none;align=left;verticalAlign=middle;whiteSpace=wrap;rounded=0;" vertex="1" parent="1">
                    <mxGeometry x="287" y="280" width="60" height="30" as="geometry"/>
                </mxCell>
            </root>
        </mxGraphModel>
    </diagram>
    <diagram id="LkUhHcD9z5GdynpJ2Ea7" name="routing_table">
        <mxGraphModel dx="766" dy="541" grid="1" gridSize="10" guides="1" tooltips="1" connect="1" arrows="1" fold="1" page="1" pageScale="1" pageWidth="827" pageHeight="1169" background="#ffffff" math="0" shadow="0">
            <root>
                <mxCell id="0"/>
                <mxCell id="1" parent="0"/>
                <mxCell id="KE2HAYtQefeGD462-hhi-1" value="" style="rounded=0;whiteSpace=wrap;html=1;fontSize=18;fillColor=#FFFFFF;strokeColor=none;" vertex="1" parent="1">
                    <mxGeometry x="20" y="80" width="660" height="380" as="geometry"/>
                </mxCell>
                <mxCell id="KE2HAYtQefeGD462-hhi-2" value="&lt;font style=&quot;font-size: 14px;&quot;&gt;struct nlmsghdr&lt;/font&gt;" style="rounded=0;whiteSpace=wrap;html=1;strokeColor=#000000;fillColor=#FFFFFF;fontColor=#000000;" vertex="1" parent="1">
                    <mxGeometry x="40" y="160" width="180" height="40" as="geometry"/>
                </mxCell>
                <mxCell id="KE2HAYtQefeGD462-hhi-3" value="&lt;font style=&quot;font-size: 14px;&quot;&gt;struct rtmsg&lt;/font&gt;" style="rounded=0;whiteSpace=wrap;html=1;strokeColor=#000000;fillColor=#FFFFFF;fontColor=#000000;" vertex="1" parent="1">
                    <mxGeometry x="40" y="200" width="180" height="40" as="geometry"/>
                </mxCell>
                <mxCell id="KE2HAYtQefeGD462-hhi-4" value="&lt;font style=&quot;font-size: 18px;&quot;&gt;&lt;b style=&quot;&quot;&gt;&lt;font color=&quot;#000000&quot;&gt;RTNETLINK RoutingTable&lt;/font&gt;&lt;br&gt;&lt;/b&gt;&lt;/font&gt;" style="text;html=1;align=center;verticalAlign=middle;resizable=0;points=[];autosize=1;strokeColor=none;fillColor=none;fontSize=14;" vertex="1" parent="1">
                    <mxGeometry x="244" y="88" width="240" height="40" as="geometry"/>
                </mxCell>
                <mxCell id="KE2HAYtQefeGD462-hhi-5" value="&lt;font style=&quot;font-size: 14px;&quot;&gt;struct rtattr&lt;/font&gt;" style="rounded=0;whiteSpace=wrap;html=1;strokeColor=#000000;fillColor=#FFFFFF;fontColor=#000000;" vertex="1" parent="1">
                    <mxGeometry x="40" y="240" width="180" height="40" as="geometry"/>
                </mxCell>
                <mxCell id="KE2HAYtQefeGD462-hhi-6" value="&lt;font style=&quot;font-size: 14px;&quot;&gt;data&lt;/font&gt;" style="rounded=0;whiteSpace=wrap;html=1;strokeColor=#000000;fillColor=#FFFFFF;fontColor=#000000;" vertex="1" parent="1">
                    <mxGeometry x="40" y="280" width="180" height="40" as="geometry"/>
                </mxCell>
                <mxCell id="KE2HAYtQefeGD462-hhi-7" value="&lt;font style=&quot;font-size: 14px;&quot;&gt;struct rtattr&lt;/font&gt;" style="rounded=0;whiteSpace=wrap;html=1;strokeColor=#000000;fillColor=#FFFFFF;fontColor=#000000;" vertex="1" parent="1">
                    <mxGeometry x="40" y="360" width="180" height="40" as="geometry"/>
                </mxCell>
                <mxCell id="KE2HAYtQefeGD462-hhi-8" value="&lt;font style=&quot;font-size: 14px;&quot;&gt;data&lt;/font&gt;" style="rounded=0;whiteSpace=wrap;html=1;strokeColor=#000000;fillColor=#FFFFFF;fontColor=#000000;" vertex="1" parent="1">
                    <mxGeometry x="40" y="400" width="180" height="40" as="geometry"/>
                </mxCell>
                <mxCell id="KE2HAYtQefeGD462-hhi-9" value="&lt;font size=&quot;1&quot; color=&quot;#000000&quot;&gt;&lt;b style=&quot;font-size: 28px;&quot;&gt;......&lt;/b&gt;&lt;/font&gt;" style="text;html=1;strokeColor=none;fillColor=none;align=left;verticalAlign=middle;whiteSpace=wrap;rounded=0;" vertex="1" parent="1">
                    <mxGeometry x="47" y="320" width="60" height="30" as="geometry"/>
                </mxCell>
                <mxCell id="KE2HAYtQefeGD462-hhi-10" value="&lt;font style=&quot;font-size: 14px;&quot;&gt;struct nlmsghdr&lt;/font&gt;" style="rounded=0;whiteSpace=wrap;html=1;strokeColor=#000000;fillColor=#FFFFFF;fontColor=#000000;" vertex="1" parent="1">
                    <mxGeometry x="280" y="160" width="180" height="40" as="geometry"/>
                </mxCell>
                <mxCell id="KE2HAYtQefeGD462-hhi-11" value="&lt;font style=&quot;font-size: 14px;&quot;&gt;struct rtmsg&lt;/font&gt;" style="rounded=0;whiteSpace=wrap;html=1;strokeColor=#000000;fillColor=#FFFFFF;fontColor=#000000;" vertex="1" parent="1">
                    <mxGeometry x="280" y="200" width="180" height="40" as="geometry"/>
                </mxCell>
                <mxCell id="KE2HAYtQefeGD462-hhi-12" value="&lt;font style=&quot;font-size: 14px;&quot;&gt;struct rtattr&lt;/font&gt;" style="rounded=0;whiteSpace=wrap;html=1;strokeColor=#000000;fillColor=#FFFFFF;fontColor=#000000;" vertex="1" parent="1">
                    <mxGeometry x="280" y="240" width="180" height="40" as="geometry"/>
                </mxCell>
                <mxCell id="KE2HAYtQefeGD462-hhi-13" value="&lt;font style=&quot;font-size: 14px;&quot;&gt;data&lt;/font&gt;" style="rounded=0;whiteSpace=wrap;html=1;strokeColor=#000000;fillColor=#FFFFFF;fontColor=#000000;" vertex="1" parent="1">
                    <mxGeometry x="280" y="280" width="180" height="40" as="geometry"/>
                </mxCell>
                <mxCell id="KE2HAYtQefeGD462-hhi-14" value="&lt;font style=&quot;font-size: 14px;&quot;&gt;struct rtattr&lt;/font&gt;" style="rounded=0;whiteSpace=wrap;html=1;strokeColor=#000000;fillColor=#FFFFFF;fontColor=#000000;" vertex="1" parent="1">
                    <mxGeometry x="280" y="360" width="180" height="40" as="geometry"/>
                </mxCell>
                <mxCell id="KE2HAYtQefeGD462-hhi-15" value="&lt;font style=&quot;font-size: 14px;&quot;&gt;data&lt;/font&gt;" style="rounded=0;whiteSpace=wrap;html=1;strokeColor=#000000;fillColor=#FFFFFF;fontColor=#000000;" vertex="1" parent="1">
                    <mxGeometry x="280" y="400" width="180" height="40" as="geometry"/>
                </mxCell>
                <mxCell id="KE2HAYtQefeGD462-hhi-16" value="&lt;font size=&quot;1&quot; color=&quot;#000000&quot;&gt;&lt;b style=&quot;font-size: 28px;&quot;&gt;......&lt;/b&gt;&lt;/font&gt;" style="text;html=1;strokeColor=none;fillColor=none;align=left;verticalAlign=middle;whiteSpace=wrap;rounded=0;" vertex="1" parent="1">
                    <mxGeometry x="287" y="320" width="60" height="30" as="geometry"/>
                </mxCell>
                <mxCell id="KE2HAYtQefeGD462-hhi-17" value="&lt;font size=&quot;1&quot; color=&quot;#000000&quot;&gt;&lt;b style=&quot;font-size: 22px;&quot;&gt;......&lt;/b&gt;&lt;/font&gt;" style="text;html=1;strokeColor=none;fillColor=none;align=left;verticalAlign=middle;whiteSpace=wrap;rounded=0;" vertex="1" parent="1">
                    <mxGeometry x="228" y="260" width="47" height="30" as="geometry"/>
                </mxCell>
                <mxCell id="KE2HAYtQefeGD462-hhi-18" value="&lt;font style=&quot;font-size: 14px;&quot;&gt;struct nlmsghdr&lt;br&gt;(NLMSG_DONE)&lt;/font&gt;" style="rounded=0;whiteSpace=wrap;html=1;strokeColor=#000000;fillColor=#FFFFFF;fontColor=#000000;" vertex="1" parent="1">
                    <mxGeometry x="480" y="160" width="180" height="60" as="geometry"/>
                </mxCell>
            </root>
        </mxGraphModel>
    </diagram>
    <diagram id="7yg8yFK51GN7CsYEEDEZ" name="rtnetlink_msg">
        <mxGraphModel dx="766" dy="541" grid="1" gridSize="10" guides="1" tooltips="1" connect="1" arrows="1" fold="1" page="1" pageScale="1" pageWidth="827" pageHeight="1169" background="#ffffff" math="0" shadow="0">
            <root>
                <mxCell id="0"/>
                <mxCell id="1" parent="0"/>
                <mxCell id="_QPycehEyyt6gyCMYl1f-1" value="" style="rounded=0;whiteSpace=wrap;html=1;fontSize=18;fillColor=#FFFFFF;strokeColor=none;" parent="1" vertex="1">
                    <mxGeometry x="80" y="80" width="440" height="120" as="geometry"/>
                </mxCell>
                <mxCell id="_QPycehEyyt6gyCMYl1f-2" value="&lt;font style=&quot;font-size: 14px;&quot;&gt;struct nlmsghdr&lt;/font&gt;" style="rounded=0;whiteSpace=wrap;html=1;strokeColor=#000000;fillColor=#FFFFFF;fontColor=#000000;" parent="1" vertex="1">
                    <mxGeometry x="100" y="140" width="200" height="40" as="geometry"/>
                </mxCell>
                <mxCell id="_QPycehEyyt6gyCMYl1f-3" value="&lt;font style=&quot;font-size: 14px;&quot;&gt;struct rtmsg&lt;/font&gt;" style="rounded=0;whiteSpace=wrap;html=1;strokeColor=#000000;fillColor=#FFFFFF;fontColor=#000000;" parent="1" vertex="1">
                    <mxGeometry x="300" y="140" width="200" height="40" as="geometry"/>
                </mxCell>
                <mxCell id="_QPycehEyyt6gyCMYl1f-4" value="&lt;font style=&quot;font-size: 18px;&quot;&gt;&lt;b style=&quot;&quot;&gt;&lt;font color=&quot;#000000&quot;&gt;RTNETLINK Request Message&lt;/font&gt;&lt;br&gt;&lt;/b&gt;&lt;/font&gt;" style="text;html=1;align=center;verticalAlign=middle;resizable=0;points=[];autosize=1;strokeColor=none;fillColor=none;fontSize=14;" parent="1" vertex="1">
                    <mxGeometry x="147" y="88" width="280" height="40" as="geometry"/>
                </mxCell>
            </root>
        </mxGraphModel>
    </diagram>
    <diagram id="i7B2Dx6WDnP0a0ZuUtkY" name="netlink_msg">
        <mxGraphModel dx="766" dy="541" grid="1" gridSize="10" guides="1" tooltips="1" connect="1" arrows="1" fold="1" page="1" pageScale="1" pageWidth="827" pageHeight="1169" math="0" shadow="0">
            <root>
                <mxCell id="0"/>
                <mxCell id="1" parent="0"/>
                <mxCell id="5" value="" style="rounded=0;whiteSpace=wrap;html=1;fontSize=18;fillColor=#FFFFFF;strokeColor=none;" parent="1" vertex="1">
                    <mxGeometry x="100" y="100" width="440" height="320" as="geometry"/>
                </mxCell>
                <mxCell id="2" value="&lt;font style=&quot;font-size: 14px;&quot;&gt;struct nlmsghdr&lt;br&gt;(.nlmsg_flags=NLM_F_MULTI)&lt;/font&gt;" style="rounded=0;whiteSpace=wrap;html=1;strokeColor=#000000;fillColor=#FFFFFF;fontColor=#000000;" parent="1" vertex="1">
                    <mxGeometry x="120" y="160" width="200" height="50" as="geometry"/>
                </mxCell>
                <mxCell id="3" value="&lt;font style=&quot;font-size: 14px;&quot;&gt;payload&lt;/font&gt;" style="rounded=0;whiteSpace=wrap;html=1;strokeColor=#000000;fillColor=#FFFFFF;fontColor=#000000;" parent="1" vertex="1">
                    <mxGeometry x="320" y="160" width="200" height="50" as="geometry"/>
                </mxCell>
                <mxCell id="4" value="&lt;font style=&quot;font-size: 18px;&quot;&gt;&lt;b style=&quot;&quot;&gt;&lt;font color=&quot;#000000&quot;&gt;NETLINK message format&lt;/font&gt;&lt;br&gt;&lt;/b&gt;&lt;/font&gt;" style="text;html=1;align=center;verticalAlign=middle;resizable=0;points=[];autosize=1;strokeColor=none;fillColor=none;fontSize=14;" parent="1" vertex="1">
                    <mxGeometry x="187" y="108" width="240" height="40" as="geometry"/>
                </mxCell>
                <mxCell id="TDfU1d-AgODv6jRfEN_t-5" value="&lt;font style=&quot;font-size: 14px;&quot;&gt;struct nlmsghdr&lt;br&gt;(.nlmsg_flags=NLM_F_MULTI)&lt;/font&gt;" style="rounded=0;whiteSpace=wrap;html=1;strokeColor=#000000;fillColor=#FFFFFF;fontColor=#000000;" vertex="1" parent="1">
                    <mxGeometry x="120" y="260" width="200" height="50" as="geometry"/>
                </mxCell>
                <mxCell id="TDfU1d-AgODv6jRfEN_t-6" value="&lt;font style=&quot;font-size: 14px;&quot;&gt;payload&lt;/font&gt;" style="rounded=0;whiteSpace=wrap;html=1;strokeColor=#000000;fillColor=#FFFFFF;fontColor=#000000;" vertex="1" parent="1">
                    <mxGeometry x="320" y="260" width="200" height="50" as="geometry"/>
                </mxCell>
                <mxCell id="TDfU1d-AgODv6jRfEN_t-7" value="&lt;font style=&quot;font-size: 14px;&quot;&gt;struct nlmsghdr&lt;br&gt;(.nlmsg_type=NLMSG_DONE)&lt;/font&gt;" style="rounded=0;whiteSpace=wrap;html=1;strokeColor=#000000;fillColor=#FFFFFF;fontColor=#000000;" vertex="1" parent="1">
                    <mxGeometry x="120" y="330" width="200" height="50" as="geometry"/>
                </mxCell>
                <mxCell id="TDfU1d-AgODv6jRfEN_t-9" value="&lt;font style=&quot;font-size: 24px;&quot;&gt;......&lt;/font&gt;" style="text;html=1;strokeColor=none;fillColor=none;align=center;verticalAlign=middle;whiteSpace=wrap;rounded=0;fontSize=12;fontColor=#000000;" vertex="1" parent="1">
                    <mxGeometry x="120" y="212" width="60" height="30" as="geometry"/>
                </mxCell>
            </root>
        </mxGraphModel>
    </diagram>
</mxfile>